<?xml version="1.0" standalone="no"?>
<svg xmlns="http://www.w3.org/2000/svg" width="24" height="24"><rect width="24" height="24" opacity="0"></rect><g><path d="M12.07 17.98Q12.31 17.74 12.31 17.36Q12.31 16.99 12.07 16.73L7.32 12L12.07 7.27Q12.31 7.01 12.31 6.64Q12.31 6.26 12.07 6.02Q11.81 5.76 11.44 5.76Q11.06 5.76 10.8 6.02L5.78 11.02Q5.35 11.42 5.35 12Q5.35 12.58 5.78 12.98L10.8 17.98Q11.06 18.24 11.42 18.25Q11.78 18.26 12.07 17.98ZM18.26 17.98Q18.53 17.74 18.53 17.36Q18.53 16.99 18.26 16.73L13.56 12L18.29 7.27Q18.55 7.03 18.55 6.65Q18.55 6.26 18.29 6.02Q18.05 5.76 17.68 5.76Q17.3 5.76 17.04 6.02L12.02 11.02Q11.59 11.42 11.59 11.99Q11.59 12.55 12.02 12.98L17.02 17.98Q17.28 18.24 17.64 18.25Q18 18.26 18.26 17.98Z" fill="rgba(0,0,0,0.9019607843137255)"></path></g></svg>