<?xml version="1.0" standalone="no"?>
<svg xmlns="http://www.w3.org/2000/svg" width="48" height="48"><rect width="48" height="48" opacity="0"></rect><g><path d="M45.98 22.8Q43.75 18.77 40.26 15.81Q36.76 12.85 32.57 11.27Q28.37 9.7 24 9.7Q19.63 9.7 15.43 11.28Q11.23 12.86 7.73 15.82Q4.22 18.77 2.02 22.8Q1.73 23.29 1.73 23.86Q1.73 24.43 2.02 25.01Q4.25 28.98 7.74 31.99Q11.23 34.99 15.46 36.62Q19.68 38.26 24 38.26Q28.37 38.26 32.57 36.62Q36.77 34.99 40.27 32.02Q43.78 29.04 45.98 25.01Q46.27 24.45 46.27 23.87Q46.27 23.28 45.98 22.8ZM20.35 34.37Q15.79 33.31 11.9 30.6Q8.02 27.89 5.66 24L5.66 23.66Q8.54 18.91 13.51 16.1Q18.48 13.3 24 13.3Q29.66 13.3 34.61 16.13Q39.55 18.96 42.38 23.71L42.38 24.05Q39.98 27.98 36.12 30.67Q32.26 33.36 27.79 34.42Q24.1 35.23 20.35 34.37ZM23.95 35.04Q26.73 35.04 29.06 33.67Q31.39 32.3 32.76 29.95Q34.13 27.59 34.13 24.81Q34.13 22.03 32.76 19.7Q31.4 17.37 29.07 16.01Q26.74 14.64 23.95 14.64Q22.22 14.64 20.54 15.22Q20.06 15.41 20.09 15.6Q20.11 15.79 20.62 16.02Q21.69 16.53 22.34 17.53Q22.99 18.53 22.99 19.76Q22.99 21.5 21.77 22.73Q20.54 23.95 18.84 23.95Q17.76 23.95 16.83 23.41Q15.89 22.87 15.33 21.97Q14.96 21.41 14.63 21.41Q14.3 21.41 14.11 22.03Q13.73 23.47 13.73 24.82Q13.73 27.6 15.09 29.95Q16.46 32.31 18.82 33.67Q21.17 35.04 23.95 35.04Z" fill="rgba(101,187,92,1)"></path></g></svg>