<?xml version="1.0" standalone="no"?>
<svg xmlns="http://www.w3.org/2000/svg" width="48" height="48"><rect width="48" height="48" opacity="0"></rect><g><path d="M45.98 22.8Q43.78 18.77 40.27 15.82Q36.77 12.86 32.57 11.28Q28.37 9.7 24 9.7Q19.63 9.7 15.43 11.28Q11.23 12.86 7.73 15.82Q4.22 18.77 2.02 22.8Q1.73 23.28 1.73 23.86Q1.73 24.43 2.02 25.01Q4.22 28.99 7.73 31.99Q11.23 34.99 15.46 36.62Q19.68 38.26 24 38.26Q28.37 38.26 32.57 36.62Q36.77 34.99 40.27 32.02Q43.78 29.04 45.98 25.01Q46.27 24.43 46.27 23.86Q46.27 23.28 45.98 22.8ZM20.35 34.37Q15.79 33.31 11.9 30.62Q8.02 27.94 5.62 24L5.62 23.66Q8.5 18.86 13.46 16.08Q18.43 13.3 24 13.3Q29.62 13.3 34.58 16.13Q39.55 18.96 42.43 23.71L42.43 24.05Q39.98 28.03 36.14 30.7Q32.3 33.36 27.79 34.42Q24.1 35.23 20.35 34.37ZM23.95 35.04Q26.74 35.04 29.06 33.67Q31.39 32.3 32.76 29.95Q34.13 27.6 34.13 24.82Q34.13 22.03 32.76 19.7Q31.39 17.38 29.06 16.01Q26.74 14.64 23.95 14.64Q22.22 14.64 20.54 15.22Q20.06 15.41 20.09 15.6Q20.11 15.79 20.59 15.98Q21.7 16.51 22.34 17.52Q22.99 18.53 22.99 19.78Q22.99 21.5 21.77 22.73Q20.54 23.95 18.86 23.95Q17.76 23.95 16.82 23.42Q15.89 22.9 15.31 21.98Q14.98 21.41 14.64 21.41Q14.3 21.41 14.11 22.03Q13.73 23.47 13.73 24.82Q13.73 27.6 15.1 29.95Q16.46 32.3 18.82 33.67Q21.17 35.04 23.95 35.04Z" fill="rgba(101,187,92,1)"></path></g><defs><mask id="hms_mask_0"><rect width="48" height="48" fill="#ffffff"></rect><g><path d="M10.66 4.46Q10.13 3.84 9.34 3.53Q8.54 3.22 7.68 3.22Q5.71 3.22 4.46 4.46Q3.22 5.71 3.22 7.63Q3.22 8.45 3.53 9.26Q3.84 10.08 4.46 10.61L37.25 43.44Q37.87 44.06 38.71 44.42Q39.55 44.78 40.32 44.78Q41.18 44.78 42.02 44.42Q42.86 44.06 43.39 43.39Q44.06 42.86 44.42 42.02Q44.78 41.18 44.78 40.32Q44.78 39.55 44.42 38.71Q44.06 37.87 43.44 37.25L10.66 4.46Z" fill="#000000"></path></g></mask></defs><g><path d="M39.12 41.52Q39.74 42 40.37 42Q40.99 42 41.57 41.52Q42.05 41.04 42.05 40.34Q42.05 39.65 41.57 39.12L8.78 6.34Q8.21 5.86 7.51 5.86Q6.82 5.86 6.38 6.34Q5.86 6.82 5.81 7.46Q5.76 8.11 6.29 8.64L39.12 41.52Z" fill="rgba(101,187,92,1)"></path></g></svg>