<?xml version="1.0" standalone="no"?>
<svg xmlns="http://www.w3.org/2000/svg" width="24" height="24"><rect width="24" height="24" opacity="0"></rect><g><path d="M17.4 16.06Q18.29 14.93 18.79 13.55Q19.3 12.17 19.3 10.68Q19.3 8.33 18.12 6.34Q16.94 4.34 14.95 3.18Q12.96 2.02 10.61 2.02Q8.26 2.02 6.26 3.18Q4.27 4.34 3.11 6.34Q1.94 8.33 1.94 10.68Q1.94 13.03 3.11 15.02Q4.27 17.02 6.26 18.18Q8.26 19.34 10.61 19.34Q12.17 19.34 13.56 18.83Q14.95 18.31 16.1 17.38L20.47 21.72Q20.74 21.98 21.12 21.98Q21.5 21.98 21.77 21.72Q22.03 21.46 22.03 21.07Q22.03 20.69 21.77 20.42L17.4 16.06ZM3.79 10.68Q3.79 8.81 4.72 7.25Q5.64 5.69 7.19 4.76Q8.74 3.84 10.61 3.84Q12.48 3.84 14.04 4.76Q15.6 5.69 16.52 7.25Q17.45 8.81 17.45 10.68Q17.45 12.55 16.52 14.11Q15.6 15.67 14.04 16.6Q12.48 17.52 10.61 17.52Q8.74 17.52 7.19 16.6Q5.64 15.67 4.72 14.11Q3.79 12.55 3.79 10.68Z" fill="rgba(0,0,0,0.9019607843137255)"></path></g></svg>